<svg xmlns="http://www.w3.org/2000/svg" width="168" height="37" viewBox="0 0 168 37" fill="none">
<g clip-path="url(#clip0_1787_37568)">
<path d="M28.2857 8.59488V15.4745L14.1243 7.37961H14.1219L0 15.4538V8.57186L14.1219 0.5L28.2857 8.59488Z" fill="#153E3B"/>
<path d="M28.2886 21.1691V30.5414H22.2693V24.6078L22.2297 24.5847L17.1543 21.6847V36.498H11.1373V21.6616L6.01998 24.5847V30.5414H0.00292969V21.1461L6.01998 17.7051L14.1225 13.0742L14.1458 13.0857L22.2693 17.7281L28.2886 21.1691Z" fill="#153E3B"/>
<path d="M28.2874 8.58337V15.463L14.1445 7.37961V0.5L28.2874 8.58337Z" fill="black" fill-opacity="0.3"/>
<path d="M28.2874 21.1693V30.5416H22.268V24.608L22.2285 24.5849L17.1531 21.6849V36.4983H14.1445V13.0859L22.268 17.7284L28.2874 21.1693Z" fill="black" fill-opacity="0.3"/>
</g>
<path d="M167.057 20.5129C167.057 20.5637 167.032 20.9196 166.981 21.5806H156.634C156.82 22.428 157.261 23.0975 157.956 23.589C158.651 24.0805 159.515 24.3263 160.549 24.3263C161.261 24.3263 161.888 24.2246 162.43 24.0212C162.989 23.8009 163.506 23.4619 163.981 23.0043L166.091 25.2923C164.803 26.7668 162.922 27.5041 160.447 27.5041C158.905 27.5041 157.54 27.2075 156.354 26.6143C155.168 26.0041 154.252 25.1652 153.608 24.0974C152.964 23.0297 152.642 21.8179 152.642 20.462C152.642 19.1231 152.956 17.9197 153.583 16.852C154.227 15.7673 155.1 14.9283 156.202 14.3351C157.32 13.725 158.566 13.4199 159.939 13.4199C161.278 13.4199 162.489 13.708 163.574 14.2843C164.659 14.8605 165.506 15.691 166.116 16.7757C166.743 17.8435 167.057 19.0892 167.057 20.5129ZM159.964 16.4198C159.066 16.4198 158.312 16.674 157.701 17.1825C157.091 17.6909 156.718 18.3858 156.583 19.2671H163.32C163.184 18.4028 162.811 17.7164 162.201 17.2079C161.591 16.6825 160.845 16.4198 159.964 16.4198Z" fill="#252626"/>
<path d="M151.857 26.6316C151.467 26.9197 150.984 27.14 150.408 27.2925C149.849 27.4281 149.255 27.4959 148.628 27.4959C147.001 27.4959 145.739 27.0807 144.84 26.2502C143.959 25.4197 143.518 24.1995 143.518 22.5894V16.9709H141.408V13.9202H143.518V10.5898H147.484V13.9202H150.891V16.9709H147.484V22.5385C147.484 23.1148 147.628 23.5639 147.916 23.8859C148.221 24.191 148.645 24.3435 149.188 24.3435C149.815 24.3435 150.349 24.174 150.789 23.8351L151.857 26.6316Z" fill="#252626"/>
<path d="M132.86 13.4199C134.979 13.4199 136.606 13.9284 137.741 14.9453C138.877 15.9452 139.445 17.4621 139.445 19.4959V27.3007H135.733V25.5974C134.987 26.8685 133.597 27.5041 131.564 27.5041C130.513 27.5041 129.598 27.3261 128.818 26.9702C128.055 26.6143 127.471 26.1228 127.064 25.4957C126.657 24.8686 126.454 24.1568 126.454 23.3602C126.454 22.0891 126.928 21.0891 127.877 20.3603C128.843 19.6315 130.326 19.2671 132.326 19.2671H135.479C135.479 18.4028 135.216 17.7418 134.691 17.2842C134.165 16.8096 133.377 16.5723 132.326 16.5723C131.597 16.5723 130.877 16.691 130.165 16.9283C129.47 17.1486 128.877 17.4537 128.386 17.8435L126.962 15.0724C127.708 14.547 128.598 14.1402 129.631 13.8521C130.682 13.564 131.758 13.4199 132.86 13.4199ZM132.555 24.8347C133.233 24.8347 133.835 24.6822 134.36 24.3771C134.885 24.0551 135.258 23.589 135.479 22.9789V21.5806H132.758C131.131 21.5806 130.318 22.1145 130.318 23.1822C130.318 23.6907 130.513 24.0974 130.903 24.4025C131.309 24.6906 131.86 24.8347 132.555 24.8347Z" fill="#252626"/>
<path d="M125.118 26.6316C124.728 26.9197 124.245 27.14 123.669 27.2925C123.11 27.4281 122.516 27.4959 121.889 27.4959C120.262 27.4959 119 27.0807 118.101 26.2502C117.22 25.4197 116.779 24.1995 116.779 22.5894V16.9709H114.669V13.9202H116.779V10.5898H120.745V13.9202H124.152V16.9709H120.745V22.5385C120.745 23.1148 120.889 23.5639 121.177 23.8859C121.482 24.191 121.906 24.3435 122.449 24.3435C123.076 24.3435 123.61 24.174 124.05 23.8351L125.118 26.6316Z" fill="#252626"/>
<path d="M107.392 27.5041C106.256 27.5041 105.146 27.3685 104.061 27.0973C102.976 26.8092 102.112 26.4533 101.468 26.0296L102.79 23.1822C103.4 23.572 104.137 23.8941 105.002 24.1483C105.866 24.3856 106.714 24.5042 107.544 24.5042C109.222 24.5042 110.061 24.089 110.061 23.2585C110.061 22.8687 109.832 22.589 109.374 22.4196C108.917 22.2501 108.214 22.106 107.264 21.9874C106.146 21.8179 105.222 21.623 104.493 21.4026C103.765 21.1823 103.129 20.7925 102.587 20.2332C102.061 19.6739 101.799 18.8773 101.799 17.8435C101.799 16.9791 102.044 16.2164 102.536 15.5554C103.044 14.8775 103.773 14.3521 104.722 13.9792C105.688 13.6064 106.824 13.4199 108.129 13.4199C109.095 13.4199 110.052 13.5301 111.002 13.7504C111.968 13.9538 112.764 14.2419 113.391 14.6148L112.069 17.4367C110.866 16.7588 109.552 16.4198 108.129 16.4198C107.281 16.4198 106.646 16.5384 106.222 16.7757C105.798 17.013 105.586 17.3181 105.586 17.6909C105.586 18.1146 105.815 18.4112 106.273 18.5807C106.731 18.7502 107.459 18.9112 108.459 19.0638C109.578 19.2502 110.493 19.4536 111.205 19.6739C111.917 19.8773 112.535 20.2586 113.061 20.8179C113.586 21.3772 113.849 22.1569 113.849 23.1568C113.849 24.0042 113.595 24.7584 113.086 25.4194C112.578 26.0804 111.832 26.5973 110.849 26.9702C109.883 27.3261 108.73 27.5041 107.392 27.5041Z" fill="#252626"/>
<path d="M99.8941 23.9909V27.2959H86.115V9.5H99.5636V12.8049H90.208V16.6692H98.4704V19.8725H90.208V23.9909H99.8941Z" fill="#252626"/>
<path d="M82.1605 13.625V27.3024H78.398V25.6754C77.8726 26.2685 77.2455 26.7262 76.5167 27.0482C75.7879 27.3533 74.9998 27.5058 74.1524 27.5058C72.3559 27.5058 70.9322 26.9889 69.8814 25.955C68.8306 24.9211 68.3052 23.3873 68.3052 21.3535V13.625H72.2711V20.7688C72.2711 22.9721 73.1948 24.0737 75.0422 24.0737C75.9913 24.0737 76.754 23.7687 77.3302 23.1585C77.9065 22.5314 78.1946 21.6077 78.1946 20.3874V13.625H82.1605Z" fill="#252626"/>
<path d="M61.2184 15.4283C61.693 14.7673 62.3285 14.2673 63.1251 13.9284C63.9386 13.5894 64.8708 13.4199 65.9216 13.4199V17.0808C65.4809 17.0469 65.1843 17.0299 65.0318 17.0299C63.8963 17.0299 63.0065 17.352 62.3624 17.996C61.7184 18.6231 61.3964 19.5722 61.3964 20.8433V27.3007H57.4304V13.6233H61.2184V15.4283Z" fill="#252626"/>
<path d="M45.9803 12.8558H40.2856V9.5H55.7935V12.8558H50.0988V27.2959H45.9803V12.8558Z" fill="#252626"/>
<defs>
<clipPath id="clip0_1787_37568">
<rect width="28.2857" height="36" fill="white" transform="translate(0 0.5)"/>
</clipPath>
</defs>
</svg>